{
  "accessors": [
    {
      "bufferView": 2,
      "componentType": 5126,
      "count": 497,
      "max": [
        0.6830387115478516,
        0.6868011355400085,
        0.8698131442070007
      ],
      "min": [
        -0.6830387115478516,
        -0.6868011355400085,
        -0.5872781276702881
      ],
      "type": "VEC3"
    },
    {
      "bufferView": 2,
      "byteOffset": 5964,
      "componentType": 5126,
      "count": 497,
      "max": [
        0.9940899610519409,
        0.9995657205581665,
        1.0
      ],
      "min": [
        -0.9940899610519409,
        -0.9995657205581665,
        -0.990331768989563
      ],
      "type": "VEC3"
    },
    {
      "bufferView": 1,
      "componentType": 5126,
      "count": 497,
      "max": [
        0.9849987626075745,
        0.9821897745132446
      ],
      "min": [
        0.006277610547840595,
        0.0406840443611145
      ],
      "type": "VEC2"
    },
    {
      "bufferView": 0,
      "componentType": 5125,
      "count": 2148,
      "type": "SCALAR"
    },
    {
      "bufferView": 2,
      "byteOffset": 11928,
      "componentType": 5126,
      "count": 424,
      "max": [
        1.6191771030426025,
        1.6191774606704712,
        2.2312586307525635
      ],
      "min": [
        -1.6191762685775757,
        -1.6191766262054443,
        0.747761607170105
      ],
      "type": "VEC3"
    },
    {
      "bufferView": 2,
      "byteOffset": 17016,
      "componentType": 5126,
      "count": 424,
      "max": [
        0.9992480874061584,
        0.9992480874061584,
        1.0
      ],
      "min": [
        -0.9992479085922241,
        -0.9992480278015137,
        -0.7039139270782471
      ],
      "type": "VEC3"
    },
    {
      "bufferView": 1,
      "byteOffset": 3976,
      "componentType": 5126,
      "count": 424,
      "max": [
        0.9580301642417908,
        0.9580302238464355
      ],
      "min": [
        0.04196995496749878,
        0.041969895362854004
      ],
      "type": "VEC2"
    },
    {
      "bufferView": 0,
      "byteOffset": 8592,
      "componentType": 5125,
      "count": 1824,
      "type": "SCALAR"
    },
    {
      "bufferView": 2,
      "byteOffset": 22104,
      "componentType": 5126,
      "count": 1457,
      "max": [
        1.5523433685302734,
        1.5523438453674316,
        2.2151479721069336
      ],
      "min": [
        -1.552342176437378,
        -1.5523427724838257,
        0.7281386256217957
      ],
      "type": "VEC3"
    },
    {
      "bufferView": 2,
      "byteOffset": 39588,
      "componentType": 5126,
      "count": 1457,
      "max": [
        1.0,
        0.9640594720840454,
        1.0
      ],
      "min": [
        -1.0,
        -1.0,
        -0.9994698762893677
      ],
      "type": "VEC3"
    },
    {
      "bufferView": 1,
      "byteOffset": 7368,
      "componentType": 5126,
      "count": 1457,
      "max": [
        1.0,
        1.0
      ],
      "min": [
        0.0,
        0.01269435416907072
      ],
      "type": "VEC2"
    },
    {
      "bufferView": 0,
      "byteOffset": 15888,
      "componentType": 5125,
      "count": 5856,
      "type": "SCALAR"
    }
  ],
  "asset": {
    "extras": {
      "author": "FarAlbatross (https://sketchfab.com/santhu48)",
      "license": "CC-BY-4.0 (http://creativecommons.org/licenses/by/4.0/)",
      "source": "https://sketchfab.com/3d-models/toon-mushroom-0f61362dc26d479887f15095101c25f8",
      "title": "Toon Mushroom"
    },
    "generator": "Sketchfab-15.46.0",
    "version": "2.0"
  },
  "bufferViews": [
    {
      "buffer": 0,
      "byteLength": 39312,
      "name": "floatBufferViews",
      "target": 34963
    },
    {
      "buffer": 0,
      "byteLength": 19024,
      "byteOffset": 39312,
      "byteStride": 8,
      "name": "floatBufferViews",
      "target": 34962
    },
    {
      "buffer": 0,
      "byteLength": 57072,
      "byteOffset": 58336,
      "byteStride": 12,
      "name": "floatBufferViews",
      "target": 34962
    }
  ],
  "buffers": [
    {
      "byteLength": 115408,
      "uri": "scene.bin"
    }
  ],
  "images": [
    {
      "uri": "textures/Material.002_baseColor.png"
    }
  ],
  "materials": [
    {
      "doubleSided": true,
      "name": "Material.002",
      "pbrMetallicRoughness": {
        "baseColorTexture": {
          "index": 0
        },
        "metallicFactor": 0.0,
        "roughnessFactor": 0.7763932022500211
      }
    },
    {
      "doubleSided": true,
      "name": "Material.001",
      "pbrMetallicRoughness": {
        "baseColorFactor": [
          0.8,
          0.0234782,
          0.0017374,
          1.0
        ],
        "metallicFactor": 0.0,
        "roughnessFactor": 0.9581861887023027
      }
    },
    {
      "doubleSided": true,
      "name": "Material.003",
      "pbrMetallicRoughness": {
        "baseColorFactor": [
          0.8,
          0.5623,
          0.293024,
          1.0
        ],
        "metallicFactor": 0.0,
        "roughnessFactor": 0.8673132259906764
      }
    }
  ],
  "meshes": [
    {
      "name": "Cylinder_Material.002_0",
      "primitives": [
        {
          "attributes": {
            "NORMAL": 1,
            "POSITION": 0,
            "TEXCOORD_0": 2
          },
          "indices": 3,
          "material": 0,
          "mode": 4
        }
      ]
    },
    {
      "name": "Cylinder_Material.001_0",
      "primitives": [
        {
          "attributes": {
            "NORMAL": 5,
            "POSITION": 4,
            "TEXCOORD_0": 6
          },
          "indices": 7,
          "material": 1,
          "mode": 4
        }
      ]
    },
    {
      "name": "Cylinder_Material.003_0",
      "primitives": [
        {
          "attributes": {
            "NORMAL": 9,
            "POSITION": 8,
            "TEXCOORD_0": 10
          },
          "indices": 11,
          "material": 2,
          "mode": 4
        }
      ]
    }
  ],
  "nodes": [
    {
      "children": [
        1
      ],
      "matrix": [
        1.0,
        0.0,
        0.0,
        0.0,
        0.0,
        2.220446049250313e-16,
        -1.0,
        0.0,
        0.0,
        1.0,
        2.220446049250313e-16,
        0.0,
        0.0,
        0.0,
        0.0,
        1.0
      ],
      "name": "Sketchfab_model"
    },
    {
      "children": [
        2
      ],
      "matrix": [
        0.009999999776482582,
        0.0,
        0.0,
        0.0,
        0.0,
        0.0,
        0.009999999776482582,
        0.0,
        0.0,
        -0.009999999776482582,
        0.0,
        0.0,
        0.0,
        0.0,
        0.0,
        1.0
      ],
      "name": "0e05742e5f814f0a929971f241450490.fbx"
    },
    {
      "children": [
        3
      ],
      "name": "RootNode"
    },
    {
      "children": [
        4,
        5,
        6
      ],
      "matrix": [
        80.94586944580078,
        0.0,
        0.0,
        0.0,
        0.0,
        -1.3187756044072351e-05,
        -80.94586944579972,
        0.0,
        0.0,
        88.04073333740118,
        -1.4343656089484651e-05,
        0.0,
        0.0,
        51.732086181640625,
        0.0,
        1.0
      ],
      "name": "Cylinder"
    },
    {
      "mesh": 0,
      "name": "Cylinder_Material.002_0"
    },
    {
      "mesh": 1,
      "name": "Cylinder_Material.001_0"
    },
    {
      "mesh": 2,
      "name": "Cylinder_Material.003_0"
    }
  ],
  "samplers": [
    {
      "magFilter": 9729,
      "minFilter": 9987,
      "wrapS": 10497,
      "wrapT": 10497
    }
  ],
  "scene": 0,
  "scenes": [
    {
      "name": "Sketchfab_Scene",
      "nodes": [
        0
      ]
    }
  ],
  "textures": [
    {
      "sampler": 0,
      "source": 0
    }
  ]
}
